# xmcd CD database file
#
# Track frame offsets:
#	150
#	15164
#	27829
#	42865
#	51230
#	59855
#	77168
#	92529
#	107440
#	122538
#	137804
#	151279
#	166785
#	180807
#	195700
#	208954
#	223510
#
# Disc length: 3188 seconds
#
# Revision: 4
# Processed by: cddbd v1.5.2PL0 Copyright (c) Steve Scherf et al.
# Submitted via: CDex 1.51
#
DISCID=da0c7211
DTITLE=Billie Holiday - [CD 03-10] - Do Your Duty
DYEAR=1900
DGENRE=Jazz
TTITLE0=Keep On A-Rainin'  [1949]
TTITLE1=Gimme A Pigfoot And A Bottle Of Beer  [1949]
TTITLE2=Do Your Duty  [1949]
TTITLE3=(Interveiw)  [1949]
TTITLE4=All Of Me  [1949]
TTITLE5=I Cover The Waterfront  [1949]
TTITLE6=My Sweet Hunk Of Trash  [1949]
TTITLE7=You Can't Lose A Broken Heart  [1949]
TTITLE8=Now Or Never  [1949]
TTITLE9=My Sweet Hunk O'Trash  [1949]
TTITLE10=Somedy's On My Mind  [1949]
TTITLE11=You're My Thrill  [1949]
TTITLE12=Crazy He Calls Me  [1949]
TTITLE13=Please Tell Me Now  [1949]
TTITLE14=This Is Heaven To Me  [1950]
TTITLE15=God Bless The Child  [1950]
TTITLE16=You're My Thrill  [1950]
EXTD=
EXTT0=
EXTT1=
EXTT2=
EXTT3=
EXTT4=
EXTT5=
EXTT6=
EXTT7=
EXTT8=
EXTT9=
EXTT10=
EXTT11=
EXTT12=
EXTT13=
EXTT14=
EXTT15=
EXTT16=
PLAYORDER=
